<?xml version="1.0" encoding="utf-8"?>
<!-- Generator: Adobe Illustrator 19.1.0, SVG Export Plug-In . SVG Version: 6.00 Build 0)  -->
<svg version="1.1" id="Layer_1" xmlns="http://www.w3.org/2000/svg" xmlns:xlink="http://www.w3.org/1999/xlink" x="0px" y="0px"
	 viewBox="0 0 144 72" style="enable-background:new 0 0 144 72;" xml:space="preserve">
<style type="text/css">
	.st0{fill:#FFFFFF;}
</style>
<g>
	<path class="st0" d="M122.1,62.1H21.9V2.4h100.3V62.1z M123.1,1.5h-0.9H21.9h-0.9v0.9v59.7V63h0.9h100.3h0.9v-0.9V2.4V1.5z"/>
	<path class="st0" d="M70.7,33.8c-1.4,0-2.6,5.7-3.8,5.6c-1,0-0.2-3.9-1.7-3.9c-0.9,0-1.2,1.5-1.6,2.9c0,0.1-0.7,2.7-1.7,2.7
		c-0.7,0-1.2-0.5-1.2-2.1c0-0.7,0-1.8-0.9-2c-1.5-0.3-1.2,1.2-2.5,1c-3.6-0.7-6.3,6.7-4.1,7.6c2.6,1.2,4.5-3.4,5.3-3.3
		c0.6,0.1,0.2,2.1,2.1,2c1.5-0.1,2.7-3.3,3.3-3.2c0.5,0,0.1,1.9,1.4,2c1.5,0.1,2.2-2.5,2.9-2.5c0.2,0,0.3,0.1,0.2,0.8
		c0,0.9-0.1,11.7-0.2,12c0,0.7,0.3,0.7,0.4,0.7c0.1,0,1.6,0,1.9,0c0.3,0,0.3-0.3,0.3-0.4c0-0.1,0.2-15.8,0.2-19.2
		C71.1,33.8,70.9,33.8,70.7,33.8 M58.1,40.3c-0.4,1.3-1.8,3.4-2.5,3.5c-0.2,0-0.5-0.1-0.5-0.5c0-1.1,1.7-3.5,2.4-3.7
		C58,39.4,58.2,39.8,58.1,40.3"/>
	<path class="st0" d="M115.3,26.8c-2.8,1.8-2.2-4.7-3.9-4.7c-1.8,0-2.4,3.8-3,3.9c-0.8,0.1,0.3-2.8-1.3-2.8c-1.8,0.1-2.7,6.4-4,5.9
		c-1.3-0.5-0.4-3.9-1.8-4.1c-0.8-0.1-0.9,0.5-1.4,0.8c-0.7,0.4-1.9-0.3-3.8,1.9c-2.2,2.5-2.8,6.6-1.2,6.9c2.2,0.4,4.2-3.4,4.7-3.9
		c0.7-0.7,0.3,2,2.2,2c2,0,2.6-3.3,3.2-3.3c0.5,0-0.1,1.8,0.9,1.9c2.1,0.3,3.2-5.2,4.1-5.1c0.9,0.1,0.5,3.4,2.6,3.6
		c1.8,0.2,3-2.2,3.1-2.6C115.9,26.9,115.6,26.6,115.3,26.8 M99.5,28.6c-0.4,1.1-1.6,3-2.3,3.1c-0.2,0-0.5-0.2-0.5-0.6
		c0-1,1.7-3.1,2.4-3.2C99.5,27.7,99.6,28.1,99.5,28.6"/>
	<path class="st0" d="M59.1,49.7c0.5,0.2,1.2,0.7,0.8,1.5c-0.3,0.6-0.5,1-0.5,1.1c-0.3,0.5-1,0.8-1.9,0.4c-1.4-0.7-9-4.3-9.3-4.4
		c-0.3-0.1-0.7,0-0.7,0.7c0,0.8,0,1.8,0,2c0,0.3,0,0.9-0.5,1.3c-0.6,0.4-1.6,1-1.7,1.1C45,53.6,44.3,54,44.3,53c0-2,0-5.8,0-6
		c0-0.2,0-0.6-0.6-0.9c-0.5-0.2-4-1.9-4.2-2c-0.3-0.1-0.5-0.6,0.1-1c0.7-0.4,4-2.4,4.2-2.5c0.4-0.3,0.4-0.5,0.4-1.3
		c0-0.9-0.1-12.7,0-12.9c0-0.3,0-0.6,0.5-0.9c0.6-0.4,1.2-0.8,1.4-0.9c0.3-0.2,1.3-0.6,1.3,0.5c0,0.8,0,11.5,0,11.8
		c0,0.4,0.2,1,0.8,0.5c7.6-5.6,8.6-10.4,7.1-13.5c-3.1-6.4-19.2,3.8-26.2,9.6c-1.1,0.9-1.1,0.5-1.1,0.1c0-0.5,0-2.4,0.1-2.8
		c0.1-0.5,0.2-2.1,1.7-3.2c1.5-1.1,21.4-13.9,27.2-5.6c2.8,4,1.1,10.4-8.9,17.8c-0.6,0.5-0.7,0.6-0.7,1.4c0,0.8,0,2,0,2.3
		c0,0.2,0,0.7,0.5,1C48.5,44.7,58.7,49.5,59.1,49.7"/>
	<path class="st0" d="M78.2,33.2c-0.7-0.8-2.2-0.8-3.4-0.1c-1.5,0.9-1.9,2.4-1.2,3.2c0.7,0.8,2.5,0.7,3.6-0.1
		C78.5,35.4,78.9,34,78.2,33.2"/>
	<path class="st0" d="M89.5,11.1c3.5,3.5-2.5,10.1-3.9,11.8c-0.7,0.8-1.3,1.9-0.2,3c1,1.1,2.1,2.1,3,3c1.1,1,0.8,2.9,0.1,4
		c-0.5,0.7-1.5,1.9-2.7,3.4c-1.2,1.5-2.3,2.9-2.4,3.1c-0.8,1.1-0.6,2.3-0.2,2.9c1.3,2,1.4,2,2.2,0.5c1.4-2.4,3.2-4.6,4.5-6.1
		c1.2-1.4,1.9-2.4,2.1-2.7c1.2-1.8,1.4-3.7,0.1-4.8c-1.7-1.4-3.6-2.7-5.2-3.9c-0.9-0.7-0.3-1.6,0.7-2.3c3.5-2.6,8.4-7,6.1-12.2
		C91.5,5.7,81.4,9.6,81,20.2c-0.1,3.8,0.4,14.1,0.1,16.7c-0.2,1.5,0.4,1.3,1,1.1c0.5-0.2,2.4-1.2,2.3-3.6
		c-0.1-2.5-0.3-13.2-0.4-14.3C83.6,14.3,87.2,8.8,89.5,11.1"/>
	<path class="st0" d="M114.1,22.6h0.2v-0.4h0.1l0.3,0.4h0.2l-0.3-0.5c0.2,0,0.3-0.1,0.3-0.3c0-0.2-0.2-0.3-0.4-0.3h-0.4V22.6z
		 M114.3,22v-0.3h0.2c0.1,0,0.2,0,0.2,0.1c0,0.1-0.1,0.1-0.2,0.1H114.3z"/>
	<path class="st0" d="M114.5,23.1c-0.5,0-1-0.4-1-1s0.4-1,1-1c0.5,0,1,0.4,1,1S115,23.1,114.5,23.1 M114.5,21.4
		c-0.4,0-0.8,0.3-0.8,0.8c0,0.4,0.3,0.8,0.8,0.8c0.4,0,0.8-0.3,0.8-0.8C115.3,21.7,114.9,21.4,114.5,21.4"/>
	<path class="st0" d="M32.8,67.6V69c0,0,0,0.1,0,0.2c-0.1,0.7-0.6,1.2-1.3,1.2h-1.8c0,0-0.1,0-0.2,0c-0.7-0.1-1.1-0.6-1.1-1.3v-1.8
		c0,0,0-0.1,0-0.2c0.1-0.7,0.6-1.2,1.3-1.2h1.8c0,0,0.1,0,0.2,0c0.7,0.1,1.1,0.6,1.1,1.4h-0.9c0-0.3-0.2-0.5-0.5-0.5h-1.8
		c-0.3,0-0.5,0.2-0.5,0.5V69c0,0.3,0.2,0.4,0.5,0.4h1.8c0.3,0,0.5-0.2,0.5-0.4v-0.5h-1.4v-0.9H32.8z"/>
	<polygon class="st0" points="37.4,67.6 37.4,68.5 35.2,68.5 35.2,69.4 38.4,69.4 38.4,70.3 34.2,70.3 34.2,65.8 38.4,65.8 
		38.4,66.7 35.2,66.7 35.2,67.6 	"/>
	<polygon class="st0" points="92.2,67.6 92.2,68.5 89.9,68.5 89.9,69.4 93.1,69.4 93.1,70.3 89,70.3 89,65.8 93.1,65.8 93.1,66.7 
		89.9,66.7 89.9,67.6 	"/>
	<polygon class="st0" points="39.8,65.8 41.4,65.8 43.3,69.4 43.4,69.4 43.4,65.8 44.3,65.8 44.3,70.4 42.7,70.4 40.9,66.7 
		40.7,66.7 40.7,70.4 39.8,70.4 	"/>
	<path class="st0" d="M50.4,69c0,0,0,0.1,0,0.2c-0.1,0.7-0.6,1.2-1.3,1.2h-1.8c0,0-0.1,0-0.2,0c-0.7-0.1-1.1-0.6-1.1-1.3v-3.2h0.9
		V69c0,0.3,0.2,0.4,0.5,0.4H49c0.3,0,0.5-0.2,0.5-0.4v-3.2h0.9V69z"/>
	<rect x="51.9" y="65.8" class="st0" width="0.9" height="4.6"/>
	<polygon class="st0" points="54.3,65.8 56,65.8 57.8,69.4 58,69.4 58,65.8 58.9,65.8 58.9,70.4 57.2,70.4 55.4,66.7 55.2,66.7 
		55.2,70.4 54.3,70.4 	"/>
	<polygon class="st0" points="63.6,67.6 63.6,68.5 61.4,68.5 61.4,69.4 64.5,69.4 64.5,70.3 60.4,70.3 60.4,65.8 64.5,65.8 
		64.5,66.7 61.4,66.7 61.4,67.6 	"/>
	<path class="st0" d="M70,68.5c-0.9,0-1.1-0.9-1.1-1.4c0-0.5,0.3-1.4,1.1-1.4h2.3c0.9,0,1.1,0.8,1.1,1.4l-0.9,0
		c0-0.4-0.2-0.4-0.2-0.4H70c-0.1,0-0.2,0.1-0.2,0.5c0,0.4,0.2,0.4,0.2,0.4h2.3c0.9,0,1.1,0.9,1.1,1.4c0,0.5-0.3,1.4-1.1,1.4H70
		c-0.9,0-1.1-0.9-1.1-1.4l0.9,0c0,0.4,0.2,0.5,0.2,0.5h2.3c0.1,0,0.2-0.1,0.2-0.4c0-0.4-0.2-0.5-0.2-0.5H70z"/>
	<path class="st0" d="M87.7,69.2c-0.1,0.7-0.6,1.1-1.4,1.1h-1.8c0,0-0.1,0-0.2,0c-0.7-0.1-1.2-0.6-1.2-1.3v-1.8c0,0,0-0.1,0-0.2
		c0.1-0.7,0.6-1.2,1.3-1.2h1.8c0,0,0.1,0,0.2,0c0.7,0.1,1.1,0.6,1.1,1.4h-0.9c0-0.3-0.2-0.5-0.5-0.5h-1.8c-0.3,0-0.5,0.2-0.5,0.5V69
		c0,0.3,0.2,0.5,0.5,0.5h1.8c0.3,0,0.4-0.2,0.5-0.5h0.9C87.7,69,87.7,69.1,87.7,69.2"/>
	<path class="st0" d="M97.6,67.6l-0.4,0.2l-0.4-0.8c0.5-0.2,1.1-0.5,1.1-1.2h0.9v4.6h-0.9v-2.9C97.8,67.5,97.7,67.5,97.6,67.6"/>
	<path class="st0" d="M100.6,67.2c0-0.5,0.3-1.4,1.1-1.4h2.1c0.9,0,1.1,0.9,1.1,1.4V69c0,0,0,0.1,0,0.2c-0.1,0.7-0.6,1.2-1.3,1.2
		H102c-0.8,0-1.4-0.6-1.4-1.4h0.9c0,0.1,0,0.4,0.5,0.4h1.6c0.3,0,0.5-0.2,0.5-0.4v-0.5c-0.1,0-0.1,0-0.2,0h-2.1
		C100.9,68.5,100.6,67.7,100.6,67.2 M103.8,67.6c0.1,0,0.2-0.1,0.2-0.4c0-0.4-0.2-0.5-0.2-0.5h-2.1c-0.1,0-0.2,0.1-0.2,0.5
		c0,0.4,0.2,0.4,0.2,0.4H103.8z"/>
	<path class="st0" d="M110.7,69c0,0.5-0.3,1.4-1.1,1.4h-1.8c-0.8,0-1.4-0.6-1.4-1.4h0.9V69c0,0.2,0.2,0.4,0.5,0.4h1.8
		c0.1,0,0.2-0.1,0.2-0.4c0-0.4-0.2-0.5-0.2-0.5h-1.8v-0.9h1.8c0,0,0.2-0.1,0.2-0.4c0-0.4-0.2-0.5-0.2-0.5h-1.8
		c-0.3,0-0.4,0.2-0.5,0.5h-0.9c0,0,0-0.1,0-0.2c0.1-0.7,0.6-1.2,1.4-1.2h1.8c0.9,0,1.1,0.9,1.1,1.4c0,0.3-0.1,0.6-0.3,0.9
		C110.6,68.4,110.7,68.7,110.7,69"/>
	<path class="st0" d="M113.3,70.5l-0.8-0.4l0.2-0.4c0,0,0.5-0.9,1-1.9c0.2-0.3,0.4-0.7,0.8-1.1h-2.8v-0.9h4.1v0.9
		C115.1,67,113.6,69.8,113.3,70.5"/>
	<rect x="74.8" y="65.8" class="st0" width="0.9" height="4.6"/>
	<polygon class="st0" points="77.2,65.8 78.9,65.8 80.7,69.4 80.9,69.4 80.9,65.8 81.8,65.8 81.8,70.4 80.2,70.4 78.3,66.7 
		78.2,66.7 78.2,70.4 77.2,70.4 	"/>
</g>
</svg>
