<?xml version="1.0" encoding="utf-8"?>
<!-- Generator: Adobe Illustrator 19.1.0, SVG Export Plug-In . SVG Version: 6.00 Build 0)  -->
<svg version="1.1" id="Livello_1" xmlns="http://www.w3.org/2000/svg" xmlns:xlink="http://www.w3.org/1999/xlink" x="0px" y="0px"
	 viewBox="0 0 212.6 141.7" style="enable-background:new 0 0 212.6 141.7;" xml:space="preserve">
<style type="text/css">
	.st0{fill:#ED1C24;stroke:#ED1C24;stroke-width:0.1135;}
	.st1{fill:#ED1C24;}
	.st2{fill:#FFFFFF;}
</style>
<g>
	<rect x="3.4" y="2" class="st0" width="205.7" height="118.2"/>
	<path class="st1" d="M106.3,61.1"/>
</g>
<path class="st2" d="M113.7,60c2.4,0,3.9,1.5,3.9,3.1c0,2.3-2.4,5.7-6.9,5.7c-3.4,0-3.9-2.2-3.9-3.1C106.9,63.9,109.4,60,113.7,60z"
	/>
<path class="st2" d="M122.8,70.4c0-1.1,0.3-4.2,0.3-5.9l-0.4-29c0-7.5,2.3-12.5,4.5-15.7c2.2-3.2,7.4-9.2,14.5-9.2
	c5.5,0,8.3,4.5,8.3,9.4c0,5.4-1.8,9.7-8.2,15.6c-6.3,5.9-7.8,6-7.8,7.7c0,1.6,2,2.6,3.1,3.4c1.1,0.8,5.4,3.7,7.5,5.5
	c2.1,1.8,2.7,3.1,2.7,4.9c0,3.1-1.3,4.8-2.6,6.7c-2,3.1-9.6,10.8-13.5,18.2c-0.9,1.5-1.6,1.4-2.2,0.6c-1.1-1.4-2-2.6-2.3-3.6
	c-0.3-1-0.9-2.7,0.1-4.3c1-1.6,8.2-10.5,10.8-13.8c2.2-2.8,2.2-6.9,0.5-8.5c-1.7-1.6-5.4-5-6.6-6.3c-1-1.1-1.7-3.6,0-5.5
	c5.2-6.1,10.8-12.9,10.8-19.6c0-3.8-2.5-6.4-4.5-6.4c-4.8,0-8.9,8.9-9.1,17l0.9,31.6c0,2.4,0.1,3.5-1.7,5.5c-1.7,2-3.4,2.6-4.3,2.6
	C123.1,71.5,122.8,71.1,122.8,70.4z"/>
<path class="st2" d="M189.8,38.5c0,1.1,0.9,2,2,2c1.1,0,2-0.9,2-2c0-1.1-0.9-2-2-2C190.7,36.6,189.8,37.5,189.8,38.5z M190.3,38.5
	c0-0.9,0.6-1.5,1.4-1.5c0.8,0,1.4,0.6,1.4,1.5c0,0.9-0.6,1.5-1.4,1.5C191,40.1,190.3,39.4,190.3,38.5z M191,39.6h0.5v-0.9h0.2
	l0.5,0.9h0.5l-0.6-0.9c0.3,0,0.6-0.2,0.6-0.6c0-0.5-0.3-0.7-0.9-0.7H191V39.6z M191.4,38.3v-0.5h0.3c0.2,0,0.4,0,0.4,0.2
	c0,0.3-0.2,0.3-0.4,0.3H191.4z"/>
<path class="st2" d="M63.9,83.5c0-5,4.6-12.3,8.9-12.3c0.8,0,1.2,0.2,2.1,0.2c1.1,0,1.6-2.2,3.2-2.2c1.4,0,2.8,0.5,2.8,4
	c0,1.7,1.4,4.5,2.5,4.5c2.4,0,3.9-6.7,5.1-9.9c0.3-0.8,1.1-1.6,1.8-1.6c1.3,0,1.9,1,2,2.1c0.1,1.1,0.3,6,1.6,6
	c1.5,0,2.9-4.5,4.1-6.9c1.2-2.5,2.5-4.6,3.5-4.6c1,0,0.8,0.9,0.8,1.7c-0.2,7-0.5,38.5-0.4,39c0.1,0.6-0.3,1-0.8,1s-3.3,0.1-3.8,0.1
	c-0.5,0-0.8-0.6-0.8-1.1l0.3-25.7c0-1.5-0.9-1.2-1.5-0.3c-1.8,2.7-2.9,4.4-4.8,4.4c-3.1,0-1.8-4-3.1-4c-1.3,0-3.4,6.6-7.1,6.6
	c-3.6,0-2.7-4.1-4-4.1c-1.5,0-4.3,7.2-9.1,7.2C65.8,87.4,63.9,86.8,63.9,83.5z"/>
<path class="st0" d="M69.4,81.9c0-1.9,3.6-7.7,5.2-7.7c0.6,0,1,0.6,1,1.2c0,1.7-3.8,7.6-5.2,7.6C69.8,83,69.4,82.8,69.4,81.9z"/>
<path class="st2" d="M149.3,60.4c0-5,5-13.8,10.4-13.8c0.8,0,1.7-0.2,2.2-0.8c0.5-0.6,1-1.3,2-1.3c1.7,0,2.1,1.6,2.3,2.9
	c0.3,2.1,0.6,5.6,2.1,5.6c1.1,0,1.5-1.1,2.2-2.6c0.6-1.4,2.8-6.3,3.6-7.8c0.8-1.5,1.8-1.9,2.5-1.9c0.7,0,1.7,0.7,1.7,1.7
	c0,1,0.1,3.2,0.1,3.2c0,1.1,0.9,1.4,1.7-0.4c0.9-2.2,2.7-6.7,5-6.7c1.6,0,2.2,1.6,2.7,3.8c0.6,2.2,1.5,6.6,4,6.6
	c0.8,0,2.1-1.2,2.7-0.6c0.5,0.5-0.8,2.4-1.9,3.7c-1.1,1.3-2.3,2.5-4,2.5c-1.7,0-3-0.7-3.8-2.7c-0.7-1.7-1.1-4.7-2.1-4.7
	c-0.9,0-1.5,1.5-2.6,3.8c-1.1,2.4-3.2,6.8-5.5,6.8c-1.5,0-1.8-1.1-1.8-3.1c0-0.8-0.5-1.5-1.4,0.1c-1.5,2.7-2.8,5.8-5.6,5.8
	c-2.4,0-3.3-2-3.7-3.4c-0.2-0.7-0.7-1.3-1.3-0.4c-0.6,0.9-3.4,4.7-4.8,5.8c-1.3,1.1-2.4,2-4.1,2C150.1,64.3,149.3,63,149.3,60.4z"/>
<path class="st0" d="M155,56.9c0-1.7,3.5-6.7,5.2-6.7c0.6,0,0.8,0.4,0.8,0.8c0,1.3-3.2,7.1-5,7.1C155.4,58.2,155,57.6,155,56.9z"/>
<path class="st2" d="M47.1,89.4c0-1-0.9-1.3-0.9-1.3l-8.4-3.9c-1.4-0.7-1.2-1.3,0-2.1l8.2-5.2c1-0.6,1.1-1.3,1.1-2.4L47,47.6
	c0-0.9,0.1-1.4,0.9-1.9l3.3-2.1c1.3-0.7,2.6-0.7,2.6,1v24.6c0,1.1,0.6,2,2,0.9c7.8-6.2,15.5-12.7,15.5-22.6c0-5.7-3.6-9.3-8.7-9.3
	c-12.3,0-32.8,14-40.4,19.2c-1.7,1.2-5.8,4.7-6.6,5.4c-0.8,0.8-1.5,1.1-1.5-0.5c0-1.5,0.1-3.6,0.1-5.4c0-1.7,0.6-5.2,3.1-6.8
	c17-10.8,33-17.4,44.1-17.4s14.9,7.5,14.9,12.8c0,10-7.4,19-21.7,29.9c-0.7,0.6-0.7,1.6-0.7,1.9v5.1c0,1.1,0.6,1.8,1.6,2.3
	l22.3,10.5c2.2,1.1,2,2.5,1.6,3.2c-0.4,0.8-0.7,1.8-1.2,2.3c-1.1,1.1-2.1,1.3-4,0.6l-18.4-8.8c-1.1-0.7-1.8-0.2-1.9,0.7l0.2,4.7
	c0,1.1-0.4,2.4-1.6,3.2c-1.2,0.8-2.7,1.7-3.4,2.1c-0.8,0.4-1.5,0.6-1.5-0.8c0-1.3-0.1-12.2-0.1-12.2C47.1,90.1,47.1,90.4,47.1,89.4z
	"/>
<g>
	<path class="st2" d="M14.3,133.3v3.1c0,0,0,0.2,0,0.5c-0.3,1.5-1.4,2.6-3,2.6H7.1c0,0-0.2,0-0.5,0c-1.5-0.3-2.6-1.4-2.6-3v-4.1
		c0,0,0-0.2,0-0.5c0.3-1.5,1.4-2.6,3-2.6h4.1c0,0,0.2,0,0.5,0c1.5,0.3,2.6,1.4,2.6,3.1h-2c0-0.7-0.4-1-1-1H7.1c-0.7,0-1,0.4-1,1v4.1
		c0,0.7,0.4,1,1,1h4.1c0.7,0,1-0.4,1-1v-1H9.2v-2.1H14.3z"/>
	<path class="st2" d="M25.5,133.3v2.1h-5.1v1v1h7.2v2.1h-9.2v-3.1v-7.2h3.1h6.2v2.1h-6.2h-1v2H25.5z"/>
	<path class="st2" d="M31.2,129.2h3.7l4.1,8.2h0.4v-7.2v-1h2.1v1v9.2h-3.7l-4.1-8.2h-0.4v7.2v1h-2.1v-1V129.2z"/>
	<path class="st2" d="M55.9,136.4c0,0,0,0.2,0,0.5c-0.3,1.5-1.4,2.6-3,2.6h-4.1c0,0-0.2,0-0.5,0c-1.5-0.3-2.6-1.4-2.6-3v-6.2v-1h2v1
		v6.2c0,0.7,0.4,1,1,1h4.1c0.7,0,1-0.4,1-1v-6.2v-1h2v1V136.4z"/>
	<path class="st2" d="M59.7,130.2v-1h2.1v1v8.2v1h-2.1v-1V130.2z"/>
	<path class="st2" d="M65.4,129.2h3.7l4.1,8.2h0.4v-7.2v-1h2.1v1v9.2H72l-4.1-8.2h-0.4v7.2v1h-2.1v-1V129.2z"/>
	<path class="st2" d="M86.9,133.3v2.1h-5.1v1v1H89v2.1h-9.2v-3.1v-7.2h3.1H89v2.1h-6.2h-1v2H86.9z"/>
	<path class="st2" d="M102.7,135.4h-1c-2,0-2.6-1.9-2.6-3.1c0-1.2,0.6-3.1,2.6-3.1h1h1h3.1c2,0,2.6,1.9,2.6,3.1l-2.1,0
		c0-0.9-0.4-1-0.5-1h-3.1h-1h-1c-0.1,0-0.5,0.2-0.5,1c0,0.9,0.4,1,0.5,1h1h1h3.1c1.9,0,2.6,1.9,2.6,3.1c0,1.2-0.6,3.1-2.6,3.1h-3.1
		h-1h-1c-1.9,0-2.6-1.9-2.6-3.1l2.1,0c0,0.9,0.4,1,0.5,1h1h1h3.1c0.1,0,0.5-0.2,0.5-1c0-0.9-0.4-1-0.5-1h-3.1H102.7z"/>
	<path class="st2" d="M113,130.2v-1h2.1v1v8.2v1H113v-1V130.2z"/>
	<path class="st2" d="M118.8,129.2h3.7l4.1,8.2h0.4v-7.2v-1h2.1v1v9.2h-3.7l-4.1-8.2h-0.4v7.2v1h-2.1v-1V129.2z"/>
	<path class="st2" d="M143.3,136.9c-0.3,1.5-1.4,2.6-3,2.6h-4.1c0,0-0.2,0-0.5,0c-1.5-0.3-2.6-1.4-2.6-3v-4.1c0,0,0-0.2,0.1-0.5
		c0.3-1.5,1.4-2.6,3-2.6h4.1c0,0,0.2,0,0.5,0c1.5,0.3,2.6,1.4,2.6,3.1h-2c0-0.7-0.4-1-1-1h-4.1c-0.7,0-1,0.4-1,1v4.1
		c0,0.7,0.4,1,1,1h4.1c0.7,0,1-0.4,1-1h2C143.4,136.4,143.4,136.6,143.3,136.9z"/>
	<path class="st2" d="M154,133.3v2.1h-5.1v1v1h7.2v2.1h-9.2v-3.1v-7.2h3.1h6.2v2.1h-6.2h-1v2H154z"/>
	<path class="st2" d="M166.9,133.2l-0.9,0.5l-0.9-1.8c1.1-0.5,2.4-1.1,2.4-2.6h2.1v9.2v1h-2.1v-1v-5.6
		C167.3,133,167.1,133.1,166.9,133.2z"/>
	<path class="st2" d="M173.8,132.3c0-1.2,0.6-3.1,2.6-3.1h2.1h0.5h2.1c1.9,0,2.6,1.9,2.6,3.1v4.1c0,0,0,0.2-0.1,0.5
		c-0.3,1.5-1.4,2.6-3,2.6h-3.6c-1.8,0-3.1-1.4-3.1-3.1h2c0,0.1,0.1,1,1,1h3.6c0.7,0,1-0.4,1-1v-1.1c-0.2,0-0.3,0-0.5,0h-2.6h-2.1
		C174.4,135.4,173.8,133.4,173.8,132.3z M178.4,133.3h2.6c0.1,0,0.5-0.2,0.5-1c0-0.9-0.4-1-0.5-1h-2.1h-0.5h-2.1
		c-0.1,0-0.5,0.2-0.5,1c0,0.9,0.4,1,0.5,1H178.4z"/>
	<path class="st2" d="M196.9,136.4c0,1.2-0.6,3.1-2.6,3.1h-4.1c-1.8,0-3.1-1.4-3.1-3.1h2.1c0,0,0,0,0,0.2c0.1,0.6,0.4,0.9,1,0.9h4.1
		c0.1,0,0.5-0.2,0.5-1c0-0.9-0.4-1-0.5-1h-4.1v-2.1h4.1c0.1,0,0.5-0.2,0.5-1c0-0.9-0.4-1-0.5-1h-4.1c-0.7,0-1,0.4-1,1h-2.1
		c0,0,0-0.2,0-0.5c0.3-1.5,1.4-2.6,3.1-2.6h4.1c1.9,0,2.6,1.9,2.6,3.1c0,0.6-0.2,1.4-0.6,2C196.7,135,196.9,135.8,196.9,136.4z"/>
	<path class="st2" d="M203.5,139.8l-1.8-0.9l0.5-0.9c0,0,1-2.1,2.3-4.2c0.4-0.6,1-1.6,1.8-2.5H201h-1v-2h9.2v2
		C207.6,131.9,204.3,138.1,203.5,139.8z"/>
</g>
</svg>
