<?xml version="1.0" encoding="utf-8"?>
<!-- Generator: Adobe Illustrator 19.1.0, SVG Export Plug-In . SVG Version: 6.00 Build 0)  -->
<svg version="1.1" id="Livello_1" xmlns="http://www.w3.org/2000/svg" xmlns:xlink="http://www.w3.org/1999/xlink" x="0px" y="0px"
	 viewBox="0 0 184.3 99.2" style="enable-background:new 0 0 184.3 99.2;" xml:space="preserve">
<style type="text/css">
	.st0{fill:#FFFFFF;}
</style>
<path class="st0" d="M101.6,52.1c2.4,0,3.9,1.5,3.9,3.1c0,2.3-2.4,5.7-6.9,5.7c-3.4,0-3.9-2.2-3.9-3.1C94.8,56,97.3,52.1,101.6,52.1
	z"/>
<path class="st0" d="M110.7,62.5c0-1.1,0.3-4.2,0.3-5.9l-0.4-29c0-7.5,2.3-12.5,4.5-15.7c2.2-3.2,7.4-9.2,14.5-9.2
	c5.5,0,8.3,4.5,8.3,9.4c0,5.4-1.8,9.7-8.2,15.6c-6.3,5.9-7.8,6-7.8,7.7c0,1.6,2,2.6,3.1,3.4c1.1,0.8,5.4,3.7,7.5,5.5
	c2.1,1.8,2.7,3.1,2.7,4.9c0,3.1-1.3,4.8-2.6,6.7c-2,3.1-9.6,10.8-13.5,18.2c-0.9,1.5-1.6,1.4-2.2,0.6c-1.1-1.4-2-2.6-2.3-3.6
	c-0.3-1-0.9-2.7,0.1-4.3c1-1.6,8.2-10.5,10.8-13.8c2.2-2.8,2.2-6.9,0.5-8.5c-1.7-1.6-5.4-5-6.6-6.3c-1-1.1-1.7-3.6,0-5.5
	c5.2-6.1,10.8-12.9,10.8-19.6c0-3.8-2.5-6.4-4.5-6.4c-4.8,0-8.9,8.9-9.1,17l0.9,31.6c0,2.4,0.1,3.5-1.7,5.5c-1.7,2-3.4,2.6-4.3,2.6
	C111,63.6,110.7,63.2,110.7,62.5z"/>
<path class="st0" d="M177.7,30.6c0,1.1,0.9,2,2,2c1.1,0,2-0.9,2-2c0-1.1-0.9-2-2-2C178.6,28.7,177.7,29.6,177.7,30.6z M178.2,30.6
	c0-0.9,0.6-1.5,1.4-1.5c0.8,0,1.4,0.6,1.4,1.5c0,0.9-0.6,1.5-1.4,1.5C178.9,32.2,178.2,31.5,178.2,30.6z M178.9,31.7h0.5v-0.9h0.2
	l0.5,0.9h0.5l-0.6-0.9c0.3,0,0.6-0.2,0.6-0.6c0-0.5-0.3-0.7-0.9-0.7h-0.8V31.7z M179.3,30.4v-0.5h0.3c0.2,0,0.4,0,0.4,0.2
	c0,0.3-0.2,0.3-0.4,0.3H179.3z"/>
<path class="st0" d="M89.5,54.7c-1,0-2.3,2.1-3.5,4.6c-1.2,2.5-2.6,6.9-4.1,6.9c-1.3,0-1.5-4.9-1.6-6c-0.1-1.1-0.7-2.1-2-2.1
	c-0.7,0-1.5,0.8-1.8,1.6c-1.1,3.2-2.7,9.9-5.1,9.9c-1.1,0-2.5-2.8-2.5-4.5c0-3.5-1.4-4-2.8-4c-1.6,0-2.2,2.2-3.2,2.2
	c-0.9,0-1.3-0.2-2.1-0.2c-4.3,0-8.9,7.4-8.9,12.3c0,3.4,1.9,3.9,3.3,3.9c4.8,0,7.6-7.2,9.1-7.2c1.3,0,0.4,4.1,4,4.1
	c3.8,0,5.8-6.6,7.1-6.6c1.3,0,0,4,3.1,4c1.9,0,3-1.7,4.8-4.4c0.6-0.9,1.5-1.1,1.5,0.3l-0.3,25.7c0,0.5,0.3,1.1,0.8,1.1
	c0.5,0,3.3-0.1,3.8-0.1s0.8-0.4,0.8-1c-0.1-0.6,0.3-32,0.4-39C90.3,55.6,90.4,54.7,89.5,54.7z M58.2,75.1c-0.5,0-1-0.3-1-1.1
	c0-1.9,3.6-7.7,5.2-7.7c0.6,0,1,0.6,1,1.2C63.5,69.2,59.7,75.1,58.2,75.1z"/>
<path class="st0" d="M182.3,40.3c-0.6-0.6-1.9,0.6-2.7,0.6c-2.4,0-3.4-4.5-4-6.6c-0.6-2.2-1.1-3.8-2.7-3.8c-2.4,0-4.1,4.6-5,6.7
	c-0.7,1.8-1.7,1.6-1.7,0.4c0,0-0.1-2.2-0.1-3.2c0-1-1-1.7-1.7-1.7s-1.7,0.4-2.5,1.9c-0.8,1.5-3.1,6.4-3.6,7.8
	c-0.6,1.5-1,2.6-2.2,2.6c-1.5,0-1.8-3.5-2.1-5.6c-0.2-1.3-0.6-2.9-2.3-2.9c-1,0-1.5,0.7-2,1.3c-0.5,0.6-1.4,0.8-2.2,0.8
	c-5.4,0-10.4,8.8-10.4,13.8c0,2.6,0.8,3.9,2.5,3.9c1.7,0,2.8-0.9,4.1-2c1.3-1.1,4.2-4.9,4.8-5.8c0.6-0.9,1.1-0.3,1.3,0.4
	c0.4,1.5,1.3,3.4,3.7,3.4c2.8,0,4.1-3.1,5.6-5.8c0.9-1.6,1.4-0.8,1.4-0.1c0,1.9,0.3,3.1,1.8,3.1c2.2,0,4.4-4.4,5.5-6.8
	c1.1-2.4,1.7-3.8,2.6-3.8c1,0,1.4,3,2.1,4.7c0.8,2.1,2.1,2.7,3.8,2.7c1.7,0,2.9-1.2,4-2.5C181.5,42.7,182.8,40.8,182.3,40.3z
	 M143.9,50.3c-0.6,0-1-0.6-1-1.3c0-1.7,3.5-6.7,5.2-6.7c0.6,0,0.8,0.4,0.8,0.8C148.8,44.5,145.6,50.3,143.9,50.3z"/>
<path class="st0" d="M35,81.5c0-1-0.9-1.3-0.9-1.3l-8.4-3.9c-1.4-0.7-1.2-1.3,0-2.1l8.2-5.2c1-0.6,1.1-1.3,1.1-2.4l-0.1-26.9
	c0-0.9,0.1-1.4,0.9-1.9l3.3-2.1c1.3-0.7,2.6-0.7,2.6,1v24.6c0,1.1,0.6,2,2,0.9c7.8-6.2,15.5-12.7,15.5-22.6c0-5.7-3.6-9.3-8.7-9.3
	c-12.3,0-32.8,14-40.4,19.2c-1.7,1.2-5.8,4.7-6.6,5.4c-0.8,0.8-1.5,1.1-1.5-0.5C1.9,52.8,2,50.7,2,49c0-1.7,0.6-5.2,3.1-6.8
	c17-10.8,33-17.4,44.1-17.4S64,32.3,64,37.6c0,10-7.4,19-21.7,29.9c-0.7,0.6-0.7,1.6-0.7,1.9v5.1c0,1.1,0.6,1.8,1.6,2.3l22.3,10.5
	c2.2,1.1,2,2.5,1.6,3.2c-0.4,0.8-0.7,1.8-1.2,2.3c-1.1,1.1-2.1,1.3-4,0.6l-18.4-8.8c-1.1-0.7-1.8-0.2-1.9,0.7l0.2,4.7
	c0,1.1-0.4,2.4-1.6,3.2c-1.2,0.8-2.7,1.7-3.4,2.1c-0.8,0.4-1.5,0.6-1.5-0.8c0-1.3-0.1-12.2-0.1-12.2C35,82.2,35,82.5,35,81.5z"/>
</svg>
